<svg id="Gradient" enable-background="new 0 0 64 64" height="512" viewBox="0 0 64 64" width="512" xmlns="http://www.w3.org/2000/svg" xmlns:xlink="http://www.w3.org/1999/xlink"><linearGradient id="lg1"><stop offset="0" stop-color="#00a5e9"/><stop offset="1" stop-color="#15ffce"/></linearGradient><linearGradient id="SVGID_1_" gradientUnits="userSpaceOnUse" x1="32" x2="32" xlink:href="#lg1" y1="59" y2="5"/><linearGradient id="SVGID_2_" gradientUnits="userSpaceOnUse" x1="32.004" x2="32.004" xlink:href="#lg1" y1="59" y2="5"/><path d="m15.029 50.968c.512 0 1.024-.195 1.414-.586l33.942-33.942c.781-.781.781-2.047 0-2.828-.78-.781-2.048-.781-2.828 0l-33.942 33.942c-.781.781-.781 2.047 0 2.828.39.39.903.586 1.414.586z" fill="url(#SVGID_1_)"/><path d="m25.23 57.106c2.173.584 4.428.881 6.701.881 5.803 0 11.491-1.937 16.013-5.452 6.297-4.894 10.056-12.572 10.056-20.538 0-9.763-5.645-18.895-14.382-23.266-3.537-1.77-7.534-2.705-11.56-2.705-5.814 0-11.498 1.93-16.003 5.433-7.795 6.059-11.525 16.219-9.504 25.884 1.983 9.487 9.315 17.244 18.679 19.763zm-6.72-42.489c3.808-2.96 8.619-4.591 13.548-4.591 3.407 0 6.786.79 9.77 2.282 7.395 3.7 12.172 11.428 12.172 19.689 0 6.741-3.181 13.238-8.51 17.38-3.824 2.973-8.64 4.611-13.559 4.61-1.923 0-3.828-.25-5.662-.743-7.922-2.131-14.125-8.694-15.803-16.72-1.711-8.18 1.447-16.779 8.044-21.907z" fill="url(#SVGID_2_)"/></svg>