<svg id="Gradient" enable-background="new 0 0 64 64" height="512" viewBox="0 0 64 64" width="512" xmlns="http://www.w3.org/2000/svg" xmlns:xlink="http://www.w3.org/1999/xlink"><linearGradient id="lg1"><stop offset="0" stop-color="#00a5e9"/><stop offset="1" stop-color="#15ffce"/></linearGradient><linearGradient id="SVGID_1_" gradientUnits="userSpaceOnUse" x1="44" x2="44" xlink:href="#lg1" y1="59" y2="5"/><linearGradient id="SVGID_2_" gradientUnits="userSpaceOnUse" x1="32.027" x2="32.027" xlink:href="#lg1" y1="59" y2="5"/><linearGradient id="SVGID_3_" gradientUnits="userSpaceOnUse" x1="27.757" x2="27.757" xlink:href="#lg1" y1="59" y2="5"/><path d="m32 38.24c.512 0 1.024-.195 1.414-.586l24-24c.781-.781.781-2.047 0-2.828-.78-.781-2.048-.781-2.828 0l-24 24c-.781.781-.781 2.047 0 2.828.39.39.902.586 1.414.586z" fill="url(#SVGID_1_)"/><path d="m32.016 58.003c.234 0 .471-.003.706-.01 9.967-.272 19.014-6.334 23.046-15.445 2.366-5.346 2.866-11.402 1.407-17.051-.276-1.07-1.37-1.714-2.437-1.437-1.069.276-1.712 1.367-1.437 2.437 1.234 4.781.811 9.906-1.192 14.432-3.411 7.707-11.064 12.835-19.497 13.066-8.434.23-16.651-4.726-20.376-12.334-3.739-7.638-2.607-17.163 2.817-23.702 5.421-6.534 14.235-9.385 22.447-7.264 1.069.276 2.161-.367 2.437-1.437.276-1.069-.367-2.16-1.437-2.437-9.708-2.507-20.121.862-26.526 8.583-6.412 7.729-7.75 18.987-3.331 28.014 4.366 8.92 13.484 14.586 23.373 14.585z" fill="url(#SVGID_2_)"/><path d="m22.101 26.34c-.781.781-.781 2.047 0 2.828l8.485 8.485c.39.391.902.586 1.414.586s1.024-.195 1.414-.586c.781-.781.781-2.047 0-2.828l-8.485-8.485c-.781-.781-2.048-.781-2.828 0z" fill="url(#SVGID_3_)"/></svg>