<svg width="1100" height="800" viewBox="0 0 1100 800" fill="none" xmlns="http://www.w3.org/2000/svg">
<g clip-path="url(#clip0_34_8714)">
<rect width="1100" height="800" fill="white"/>
<rect x="-10" y="-34" width="1130" height="872" fill="#171620"/>
<g clip-path="url(#clip1_34_8714)">
<path d="M773.62 740.09C809.44 739.29 839.67 762.03 869.46 778.79C884.43 787.22 900.19 794.9 917.2 798.1C937.49 801.92 958.28 798.33 977.02 790.01C1012.96 774.05 1039.99 742.37 1056.6 707.37C1075.59 667.37 1082.61 622.25 1084.74 578.36C1086.87 534.47 1083.14 493.49 1070.06 453.3C1058.18 416.78 1038.36 380.6 1007.14 357.16C992.8 346.39 975.97 338.74 958.01 336.94C940.05 335.14 922.45 339.47 906.95 348.08C891.35 356.75 878.05 369.61 868.9 384.93C858.78 401.86 854.01 421.68 853.86 441.33C853.57 481.78 872.35 519.33 900.67 547.45C914.48 561.16 930.34 572.75 947.29 582.27C963.62 591.45 984.21 600.24 1002.1 589.89C1008.81 586.01 1014.06 579.75 1015.44 572C1015.52 571.53 1014.8 571.33 1014.72 571.8C1013.13 580.73 1006.36 587.47 998.25 591.01C988.78 595.13 978.27 594.31 968.62 591.24C958.97 588.17 949.52 582.9 940.69 577.53C931.86 572.16 924.23 566.81 916.59 560.66C886.21 536.16 862.81 502.66 856.39 463.64C853.1 443.65 854.31 422.77 861.05 403.59C867.2 386.08 878.14 370.58 892.49 358.83C906.47 347.38 923.65 339.54 941.71 337.7C959.72 335.86 977.73 340.39 993.46 349.13C1026.88 367.69 1049.17 401.81 1063.16 436.47C1078.64 474.8 1084.58 516.42 1084.53 557.58C1084.5 578.64 1082.96 599.71 1080.09 620.57C1077.22 641.43 1072.56 663.57 1065.34 684.14C1052.35 721.13 1029.93 755.92 996.99 778.08C979.39 789.92 958.78 798.07 937.42 798.89C919.47 799.58 902.23 794.35 886.17 786.7C856.17 772.43 829.44 749.93 796.68 741.93C789.13 740.09 781.4 739.17 773.63 739.34C773.15 739.35 773.15 740.1 773.63 740.09H773.62Z" fill="url(#paint0_linear_34_8714)"/>
<path d="M781.305 630.402C812.009 631.31 834.691 656.363 852.102 678.984C869.928 702.148 889.031 729.832 919.022 737.579C933.968 741.438 949.578 739.091 964.034 734.359C978.49 729.627 992.574 722.364 1004.98 713.202C1029.7 694.959 1049.03 668.274 1055.08 637.841C1060.54 610.424 1055.27 580.705 1040.09 557.158C1032.55 545.463 1022.22 534.551 1009.89 527.861C997.55 521.171 984.591 523.128 973.078 530.062C960.073 537.904 950.465 550.36 942.373 562.957C932.614 578.132 924.961 594.514 916.453 610.394C899.981 641.111 878.948 669.963 851.708 692.01C826.4 712.491 795.92 726.334 763.138 727.828C734.465 729.143 704.666 721.628 681.936 703.599C670.151 694.253 659.715 681.844 654.732 667.486C652.121 659.967 651.269 651.825 653.11 644.024C654.95 636.223 658.924 629.862 664.069 624.239C674.939 612.382 689.753 605.065 704.294 598.772C721.202 591.465 738.633 585.491 755.856 578.958C773.237 572.359 790.247 564.928 806.624 556.091C823 547.253 838.345 537.958 852.4 526.485C865.067 516.149 876.476 503.58 882.716 488.279C887.889 475.582 889.653 461.078 885.789 447.782C875.877 413.628 836.281 406.473 806.747 398.407C789.823 393.786 771.916 387.619 759.394 374.74C756.476 371.733 753.119 368.053 751.49 364.138C750.136 360.883 753.503 355.133 755.03 352.274C758.808 345.178 764.278 339.126 770.379 333.937C783.433 322.814 799.199 315.139 814.381 307.381C831.26 298.757 848.392 290.636 865.748 283.033C880.93 276.385 896.345 269.752 912.64 266.366C928.721 263.03 944.942 263.731 960.537 268.983C975.621 274.055 989.359 282.53 1001.94 292.156C1016.38 303.2 1029.71 315.793 1041.99 329.195C1054.83 343.201 1066.48 358.309 1076.76 374.293C1085.68 388.175 1093.94 402.722 1099.49 418.315C1104.5 432.376 1107.09 447.301 1105.19 462.196C1105.13 462.676 1105.88 462.7 1105.94 462.22C1109.95 430.852 1094.56 400.853 1078.23 375.203C1058.69 344.549 1034.12 316.719 1005.62 294.091C981.645 275.053 953.127 260.398 921.675 264.129C905.732 266.019 890.503 271.696 875.788 277.891C858.557 285.145 841.561 293.001 824.798 301.296C809.164 309.04 793.072 316.705 778.684 326.653C766.502 335.066 755.109 346.029 750.782 360.607C750.441 361.749 750.06 362.614 750.386 363.693C750.975 365.65 752.76 367.787 753.946 369.43C756.208 372.573 758.827 375.437 761.709 378.012C767.838 383.478 775.029 387.605 782.514 390.921C798.581 398.02 815.889 401.033 832.614 406.101C849.34 411.169 867.003 418.566 877.723 433.164C887.033 445.834 888.912 462.102 885.447 477.174C877.251 512.795 842.903 534.778 813.198 551.61C796.994 560.792 780.124 568.695 762.794 575.493C745.649 582.226 728.192 588.115 711.139 595.092C685.858 605.429 649.614 622.073 651.406 654.851C652.183 669.096 659.959 682.177 669.219 692.617C678.521 703.101 690.121 711.401 702.816 717.275C728.347 729.083 757.913 731.511 785.319 725.776C817.347 719.065 845.912 700.52 868.773 677.577C880.934 665.371 891.702 651.799 901.216 637.443C911.018 622.665 919.089 606.962 927.251 591.241C935.618 575.122 944.426 558.933 956.479 545.225C965.641 534.792 978.407 524.926 992.842 524.382C1008.33 523.8 1022.09 535.982 1031.58 547.053C1041.16 558.21 1048.03 571.574 1052.07 585.682C1060.57 615.426 1056.09 647.155 1040.25 673.654C1023.5 701.688 995.876 722.859 965.045 733.259C949.569 738.482 932.814 741.012 916.892 736.245C901.643 731.684 888.953 721.404 878.189 709.989C857.624 688.187 842.98 660.872 818.232 643.132C807.353 635.336 794.8 630.082 781.3 629.681C780.819 629.665 780.795 630.414 781.276 630.43L781.305 630.402Z" fill="url(#paint1_linear_34_8714)"/>
<path d="M1098.27 713.8C1079.18 716.48 1059.75 715.04 1041 710.78C1022.25 706.52 1003.88 699.45 986.45 690.99C969.64 682.83 953.81 672.91 937.34 664.13C921.69 655.79 905.04 648.42 887.25 646.48C872.17 644.84 856.14 647.37 843.95 656.95C838.54 661.2 834.22 666.86 832.2 673.49C829.5 682.34 831.13 691.91 834.52 700.33C839.93 713.78 849.91 724.9 862 732.75C874.34 740.76 888.75 745.51 903.37 746.88C910.63 747.56 918.3 747.66 925.45 746.03C932.02 744.54 938.91 740.93 940.61 733.85C942.52 725.87 937.51 718.31 931.12 714.03C923.62 709.01 914.1 706.67 905.2 706.05C900.61 705.73 896.01 705.94 891.46 706.62C890.98 706.69 891.19 707.41 891.66 707.34C901.19 705.91 911 706.71 920.16 709.73C928.29 712.4 936.97 717.15 939.57 725.93C940.75 729.9 940.43 734.23 938.11 737.73C936.1 740.77 932.89 742.77 929.53 744.04C922.79 746.59 915.18 746.75 908.06 746.44C893.56 745.82 879.12 741.81 866.5 734.61C854.1 727.53 843.46 717.21 837.12 704.32C833.17 696.29 830.6 687.05 831.94 678.06C833.02 670.81 836.79 664.36 842.16 659.43C853.35 649.18 869.16 645.9 883.92 646.92C901.54 648.13 918.18 655 933.69 663.04C949.57 671.26 964.7 680.85 980.65 688.93C997.01 697.22 1014.04 704.32 1031.74 709.2C1049.21 714.02 1067.39 716.63 1085.53 715.74C1089.86 715.53 1094.18 715.11 1098.48 714.51C1098.96 714.44 1098.75 713.72 1098.28 713.79L1098.27 713.8Z" fill="url(#paint2_linear_34_8714)"/>
<path d="M694.32 290.94C738.41 299.38 782.53 307.84 826.01 319.05C847.53 324.6 868.89 330.81 889.91 338.03C908.14 344.29 926.18 351.48 942.88 361.18C959.58 370.88 974.75 383.31 986.23 399.02C997.34 414.21 1005.43 431.4 1016.96 446.3C1028.49 461.2 1042.63 471.14 1059.38 478.14C1076.83 485.43 1095.61 489.27 1114.24 492.13C1131.74 494.82 1151.27 496.34 1167.34 487.4C1183.41 478.46 1192.14 460.05 1194.86 442.33C1197.95 422.19 1194 401.55 1187.22 382.55C1180.51 363.73 1171.08 345.79 1159.77 329.32C1154.31 321.36 1148.36 313.73 1141.98 306.49C1136.54 300.32 1130.06 291.42 1121.32 290.13C1114.4 289.11 1108.44 293.39 1104.35 298.58C1098.88 305.53 1096.3 314.06 1094.33 322.55C1084.73 363.94 1094.83 407.13 1108.71 446.32C1122.76 485.98 1141.97 523.62 1165.52 558.47C1188.33 592.22 1214.51 624.29 1230.69 662.02C1232.95 667.3 1235.62 673.24 1234.58 679.12C1233.7 684.07 1229.57 688.66 1224.25 688.21C1223.77 688.17 1223.77 688.92 1224.25 688.96C1232.15 689.63 1236.15 681.14 1235.41 674.37C1234.9 669.76 1232.97 665.42 1231.15 661.2C1229.22 656.72 1227.14 652.31 1224.94 647.96C1215.9 630.1 1204.84 613.37 1193.4 596.98C1181.9 580.49 1169.97 564.29 1159.09 547.37C1147.83 529.86 1137.69 511.62 1128.75 492.82C1119.68 473.75 1111.82 454.08 1105.32 433.99C1098.75 413.68 1093.67 392.74 1091.95 371.41C1090.33 351.3 1091.33 329.43 1098.63 310.4C1101.59 302.69 1107.02 293.59 1115.51 291.22C1125.79 288.35 1133.53 298.22 1139.58 304.93C1152.86 319.66 1164.3 336.05 1173.55 353.59C1183.08 371.65 1190.81 391.11 1193.86 411.39C1196.88 431.44 1194.96 453.36 1183.69 470.72C1178.23 479.13 1170.58 485.78 1161.2 489.43C1152.4 492.86 1142.81 493.66 1133.45 493.33C1123.87 492.99 1114.36 491.48 1104.94 489.8C1095.52 488.12 1086.6 486.22 1077.62 483.65C1059.66 478.51 1042.1 470.66 1028.32 457.78C1014.44 444.81 1005.58 427.76 995.67 411.81C985.76 395.86 975 382.98 960.6 372.02C946.2 361.06 929.36 352.5 912.36 345.57C893.6 337.92 874.21 331.77 854.77 326.12C812.49 313.82 769.37 304.73 726.19 296.3C715.64 294.24 705.08 292.22 694.53 290.2C694.06 290.11 693.86 290.83 694.33 290.92L694.32 290.94Z" fill="url(#paint3_linear_34_8714)"/>
<path d="M702 544L1179 544L1179 980L702 980L702 544Z" fill="url(#paint4_radial_34_8714)" fill-opacity="0.2"/>
</g>
<rect x="-565" y="-18" width="1159" height="773" fill="url(#paint5_radial_34_8714)"/>
<path d="M-424 203L232 203L232 866L-424 866L-424 203Z" fill="url(#paint6_radial_34_8714)" fill-opacity="0.6"/>
<g clip-path="url(#clip2_34_8714)">
<path d="M-111.38 300.09C-75.56 299.29 -45.33 322.03 -15.54 338.79C-0.569977 347.22 15.19 354.9 32.2 358.1C52.49 361.92 73.28 358.33 92.02 350.01C127.96 334.05 154.99 302.37 171.6 267.37C190.59 227.37 197.61 182.25 199.74 138.36C201.87 94.4699 198.14 53.4899 185.06 13.2999C173.18 -23.22 153.36 -59.4 122.14 -82.84C107.8 -93.6101 90.97 -101.26 73.01 -103.06C55.05 -104.86 37.45 -100.53 21.95 -91.9201C6.35003 -83.2501 -6.94999 -70.3901 -16.1 -55.0701C-26.22 -38.1401 -30.99 -18.3201 -31.14 1.32995C-31.43 41.78 -12.65 79.33 15.67 107.45C29.48 121.16 45.34 132.75 62.29 142.27C78.62 151.45 99.21 160.24 117.1 149.89C123.81 146.01 129.06 139.75 130.44 132C130.52 131.53 129.8 131.33 129.72 131.8C128.13 140.73 121.36 147.47 113.25 151.01C103.78 155.13 93.27 154.31 83.62 151.24C73.97 148.17 64.52 142.9 55.69 137.53C46.86 132.16 39.23 126.81 31.59 120.66C1.21001 96.1599 -22.19 62.6599 -28.61 23.6399C-31.9 3.64995 -30.69 -17.2301 -23.95 -36.4101C-17.8 -53.9201 -6.85998 -69.4201 7.49002 -81.1701C21.47 -92.6201 38.65 -100.46 56.71 -102.3C74.72 -104.14 92.73 -99.6101 108.46 -90.8701C141.88 -72.3101 164.17 -38.19 178.16 -3.53005C193.64 34.8 199.58 76.4199 199.53 117.58C199.5 138.64 197.96 159.71 195.09 180.57C192.22 201.43 187.56 223.57 180.34 244.14C167.35 281.13 144.93 315.92 111.99 338.08C94.39 349.92 73.78 358.07 52.42 358.89C34.47 359.58 17.23 354.35 1.17001 346.7C-28.83 332.43 -55.56 309.93 -88.32 301.93C-95.87 300.09 -103.6 299.17 -111.37 299.34C-111.85 299.35 -111.85 300.1 -111.37 300.09H-111.38Z" fill="url(#paint7_linear_34_8714)"/>
<path d="M-103.695 190.402C-72.9911 191.31 -50.3089 216.363 -32.8975 238.984C-15.0719 262.148 4.03163 289.832 34.0218 297.579C48.9678 301.438 64.5786 299.091 79.0344 294.359C93.4901 289.627 107.574 282.364 119.985 273.202C144.705 254.959 164.027 228.274 170.084 197.841C175.542 170.424 170.271 140.705 155.089 117.158C147.546 105.463 137.225 94.5506 124.888 87.8609C112.55 81.1712 99.5908 83.1282 88.0787 90.0623C75.0731 97.9039 65.4649 110.36 57.3732 122.957C47.6147 138.132 39.9613 154.514 31.4537 170.394C14.9811 201.111 -6.05172 229.963 -33.2915 252.01C-58.5994 272.491 -89.0796 286.334 -121.862 287.828C-150.535 289.143 -180.334 281.628 -203.064 263.599C-214.849 254.253 -225.285 241.844 -230.268 227.486C-232.879 219.967 -233.73 211.825 -231.89 204.024C-230.049 196.223 -226.076 189.862 -220.93 184.239C-210.061 172.382 -195.247 165.065 -180.706 158.772C-163.798 151.465 -146.366 145.491 -129.144 138.958C-111.763 132.359 -94.7523 124.928 -78.3758 116.091C-61.9993 107.253 -46.6552 97.9576 -32.6 86.4847C-19.9324 76.1492 -8.52361 63.5803 -2.28421 48.2786C2.88879 35.5818 4.65279 21.0783 0.789335 7.78219C-9.12316 -26.3719 -48.7184 -33.5271 -78.2527 -41.5926C-95.1765 -46.2141 -113.084 -52.3809 -125.606 -65.2597C-128.524 -68.2675 -131.88 -71.9472 -133.51 -75.8619C-134.864 -79.1169 -131.497 -84.8674 -129.97 -87.7264C-126.192 -94.8222 -120.721 -100.874 -114.62 -106.063C-101.567 -117.186 -85.8003 -124.861 -70.6184 -132.619C-53.7393 -141.243 -36.6075 -149.364 -19.2515 -156.967C-4.06964 -163.615 11.3452 -170.248 27.6399 -173.634C43.7209 -176.97 59.942 -176.269 75.5369 -171.017C90.6211 -165.945 104.359 -157.47 116.942 -147.844C131.376 -136.8 144.714 -124.207 156.986 -110.805C169.825 -96.7986 181.477 -81.6907 191.756 -65.7069C200.681 -51.8249 208.94 -37.2779 214.492 -21.6853C219.498 -7.62403 222.093 7.30131 220.189 22.1964C220.131 22.6757 220.881 22.6996 220.938 22.2203C224.952 -9.14812 209.558 -39.1471 193.227 -64.7969C173.695 -95.4513 149.12 -123.281 120.623 -145.909C96.6452 -164.947 68.1274 -179.602 36.6749 -175.871C20.732 -173.981 5.50326 -168.304 -9.21139 -162.109C-26.443 -154.855 -43.4391 -146.999 -60.2016 -138.704C-75.8358 -130.96 -91.9273 -123.295 -106.316 -113.347C-118.498 -104.934 -129.891 -93.9709 -134.218 -79.3935C-134.559 -78.2512 -134.94 -77.3861 -134.614 -76.3074C-134.025 -74.3502 -132.24 -72.2133 -131.054 -70.5696C-128.791 -67.4271 -126.173 -64.5632 -123.291 -61.9882C-117.161 -56.5222 -109.971 -52.3949 -102.485 -49.0788C-86.4186 -41.9802 -69.111 -38.9666 -52.3853 -33.8986C-35.6596 -28.8307 -17.9966 -21.4336 -7.27678 -6.83647C2.03287 5.83383 3.9127 22.1018 0.446822 37.1735C-7.74906 72.795 -42.0968 94.7778 -71.8021 111.61C-88.0057 120.792 -104.876 128.695 -122.206 135.493C-139.351 142.226 -156.807 148.115 -173.86 155.092C-199.142 165.429 -235.386 182.073 -233.593 214.851C-232.816 229.096 -225.041 242.177 -215.78 252.617C-206.479 263.101 -194.879 271.401 -182.183 277.275C-156.652 289.083 -127.087 291.511 -99.6809 285.776C-67.6523 279.065 -39.088 260.52 -16.2272 237.577C-4.06596 225.371 6.70273 211.799 16.2158 197.443C26.0183 182.665 34.0888 166.962 42.2517 151.241C50.6183 135.122 59.4258 118.933 71.4793 105.225C80.641 94.7917 93.4069 84.9261 107.842 84.3816C123.326 83.7998 137.087 95.9824 146.582 107.053C156.159 118.21 163.034 131.574 167.07 145.682C175.574 175.426 171.089 207.155 155.253 233.654C138.498 261.688 110.876 282.859 80.0457 293.259C64.5697 298.482 47.8141 301.012 31.8924 296.245C16.6433 291.684 3.9536 281.404 -6.81101 269.989C-27.3755 248.187 -42.0196 220.872 -66.7673 203.132C-77.6472 195.336 -90.2 190.082 -103.7 189.681C-104.18 189.665 -104.204 190.414 -103.724 190.43L-103.695 190.402Z" fill="url(#paint8_linear_34_8714)"/>
<path d="M213.27 273.8C194.18 276.48 174.75 275.04 156 270.78C137.25 266.52 118.88 259.45 101.45 250.99C84.6399 242.83 68.8099 232.91 52.3399 224.13C36.6899 215.79 20.0399 208.42 2.24992 206.48C-12.8301 204.84 -28.8601 207.37 -41.0501 216.95C-46.4601 221.2 -50.7801 226.86 -52.8001 233.49C-55.5001 242.34 -53.8701 251.91 -50.4801 260.33C-45.0701 273.78 -35.0901 284.9 -23.0001 292.75C-10.6601 300.76 3.74991 305.51 18.3699 306.88C25.6299 307.56 33.2999 307.66 40.4499 306.03C47.0199 304.54 53.9099 300.93 55.6099 293.85C57.5199 285.87 52.5099 278.31 46.1199 274.03C38.6199 269.01 29.0999 266.67 20.1999 266.05C15.6099 265.73 11.0099 265.94 6.45993 266.62C5.97993 266.69 6.18992 267.41 6.65992 267.34C16.1899 265.91 25.9999 266.71 35.1599 269.73C43.2899 272.4 51.9699 277.15 54.5699 285.93C55.7499 289.9 55.4299 294.23 53.1099 297.73C51.0999 300.77 47.8899 302.77 44.5299 304.04C37.7899 306.59 30.1799 306.75 23.0599 306.44C8.55991 305.82 -5.88008 301.81 -18.5001 294.61C-30.9001 287.53 -41.5401 277.21 -47.8801 264.32C-51.8301 256.29 -54.4001 247.05 -53.0601 238.06C-51.9801 230.81 -48.2101 224.36 -42.8401 219.43C-31.6501 209.18 -15.8401 205.9 -1.08008 206.92C16.5399 208.13 33.1799 215 48.6899 223.04C64.5699 231.26 79.6999 240.85 95.6499 248.93C112.01 257.22 129.04 264.32 146.74 269.2C164.21 274.02 182.39 276.63 200.53 275.74C204.86 275.53 209.18 275.11 213.48 274.51C213.96 274.44 213.75 273.72 213.28 273.79L213.27 273.8Z" fill="url(#paint9_linear_34_8714)"/>
<path d="M-190.68 -149.06C-146.59 -140.62 -102.47 -132.16 -58.99 -120.95C-37.47 -115.4 -16.11 -109.19 4.91002 -101.97C23.14 -95.71 41.18 -88.52 57.88 -78.82C74.58 -69.12 89.75 -56.69 101.23 -40.98C112.34 -25.79 120.43 -8.59996 131.96 6.30003C143.49 21.2 157.63 31.14 174.38 38.14C191.83 45.43 210.61 49.27 229.24 52.13C246.74 54.82 266.27 56.34 282.34 47.4C298.41 38.46 307.14 20.05 309.86 2.33003C312.95 -17.81 309 -38.45 302.22 -57.45C295.51 -76.27 286.08 -94.21 274.77 -110.68C269.31 -118.64 263.36 -126.27 256.98 -133.51C251.54 -139.68 245.06 -148.58 236.32 -149.87C229.4 -150.89 223.44 -146.61 219.35 -141.42C213.88 -134.47 211.3 -125.94 209.33 -117.45C199.73 -76.06 209.83 -32.87 223.71 6.32004C237.76 45.98 256.97 83.62 280.52 118.47C303.33 152.22 329.51 184.29 345.69 222.02C347.95 227.3 350.62 233.24 349.58 239.12C348.7 244.07 344.57 248.66 339.25 248.21C338.77 248.17 338.77 248.92 339.25 248.96C347.15 249.63 351.15 241.14 350.41 234.37C349.9 229.76 347.97 225.42 346.15 221.2C344.22 216.72 342.14 212.31 339.94 207.96C330.9 190.1 319.84 173.37 308.4 156.98C296.9 140.49 284.97 124.29 274.09 107.37C262.83 89.86 252.69 71.62 243.75 52.82C234.68 33.75 226.82 14.08 220.32 -6.00996C213.75 -26.32 208.67 -47.26 206.95 -68.59C205.33 -88.7 206.33 -110.57 213.63 -129.6C216.59 -137.31 222.02 -146.41 230.51 -148.78C240.79 -151.65 248.53 -141.78 254.58 -135.07C267.86 -120.34 279.3 -103.95 288.55 -86.41C298.08 -68.35 305.81 -48.89 308.86 -28.61C311.88 -8.55997 309.96 13.36 298.69 30.72C293.23 39.13 285.58 45.78 276.2 49.43C267.4 52.86 257.81 53.66 248.45 53.33C238.87 52.99 229.36 51.48 219.94 49.8C210.52 48.12 201.6 46.22 192.62 43.65C174.66 38.51 157.1 30.66 143.32 17.78C129.44 4.81003 120.58 -12.24 110.67 -28.19C100.76 -44.14 90 -57.02 75.6 -67.98C61.2 -78.94 44.36 -87.5 27.36 -94.43C8.60001 -102.08 -10.79 -108.23 -30.23 -113.88C-72.51 -126.18 -115.63 -135.27 -158.81 -143.7C-169.36 -145.76 -179.92 -147.78 -190.47 -149.8C-190.94 -149.89 -191.14 -149.17 -190.67 -149.08L-190.68 -149.06Z" fill="url(#paint10_linear_34_8714)"/>
<path d="M-103.57 265.11C-124.07 255.19 -144.8 245.16 -167.05 239.78C-184.55 235.55 -204.48 234.05 -221.03 242.51C-256.49 260.63 -246.75 311.26 -236.68 341.71C-225.2 376.42 -203.86 408.18 -174.87 430.64C-141.4 456.56 -99.7699 466.32 -58.0999 467.66C-12.7099 469.12 33.3401 463.16 77.4101 452.51C100.01 447.05 122.27 440.17 144 431.9C164.74 424.01 185.31 415.12 204.64 404.18C239.37 384.52 272.27 353.57 276.59 311.71C278.43 293.9 273.84 275.45 263.33 260.88C258.47 254.13 252.34 248.27 245.18 244C238.02 239.73 229.34 236.35 221.73 241.8C214.65 246.87 211.17 255.73 208.99 263.84C206.29 273.84 205.57 284.35 206.69 294.64C208.81 314.24 217.6 332.5 231.19 346.72C244.58 360.73 262.48 371.13 281.54 374.99C291.85 377.07 302.68 377.09 312.73 373.74C321.43 370.84 329.13 365.6 335.88 359.48C343.23 352.83 349.56 345.17 355.8 337.5C356.1 337.13 355.57 336.6 355.27 336.97C343.38 351.58 330.28 367.46 311.63 373.31C291.39 379.65 268.84 372.79 251.37 362.03C235.32 352.16 221.99 337.69 214.34 320.4C205.9 301.31 204.43 279.01 211.2 259.19C214.04 250.87 219.83 240.17 229.8 239.56C235.11 239.24 240.37 242 244.81 244.65C248.57 246.9 252.05 249.58 255.2 252.62C268.02 264.95 275.32 282.63 276.18 300.29C278.17 341.57 248.07 375.92 215.37 396.87C197.73 408.16 178.55 417.03 159.25 425.05C139.95 433.07 118.53 440.55 97.5701 446.47C55.4501 458.36 11.8501 465.33 -31.8899 466.85C-73.4099 468.29 -116.77 464.16 -153.73 443.7C-184.77 426.52 -209.4 399.05 -225.22 367.47C-233.22 351.5 -239.02 334.42 -242.33 316.87C-245.71 298.99 -247.45 278.64 -239.07 261.81C-230.32 244.24 -211.63 237.26 -192.94 237.19C-172.23 237.11 -151.84 244.23 -133.02 252.27C-123.19 256.47 -113.57 261.12 -103.95 265.78C-103.52 265.99 -103.14 265.34 -103.57 265.13V265.11Z" fill="url(#paint11_linear_34_8714)"/>
<path d="M-183 104L294 104L294 540L-183 540L-183 104Z" fill="url(#paint12_radial_34_8714)" fill-opacity="0.2"/>
</g>
<path d="M786 -215L1310 -215L1310 363L786 363L786 -215Z" fill="url(#paint13_radial_34_8714)"/>
</g>
<defs>
<linearGradient id="paint0_linear_34_8714" x1="929.286" y1="336.537" x2="929.286" y2="799.626" gradientUnits="userSpaceOnUse">
<stop stop-color="#4D1BDC"/>
<stop offset="1" stop-color="#5CF3EA"/>
</linearGradient>
<linearGradient id="paint1_linear_34_8714" x1="687.163" y1="711.795" x2="1067.4" y2="355.051" gradientUnits="userSpaceOnUse">
<stop stop-color="#4D1BDC"/>
<stop offset="1" stop-color="#5CF3EA"/>
</linearGradient>
<linearGradient id="paint2_linear_34_8714" x1="964.799" y1="646.016" x2="964.799" y2="747.345" gradientUnits="userSpaceOnUse">
<stop stop-color="#4D1BDC"/>
<stop offset="1" stop-color="#5CF3EA"/>
</linearGradient>
<linearGradient id="paint3_linear_34_8714" x1="964.78" y1="289.979" x2="964.78" y2="688.997" gradientUnits="userSpaceOnUse">
<stop stop-color="#4D1BDC"/>
<stop offset="1" stop-color="#5CF3EA"/>
</linearGradient>
<radialGradient id="paint4_radial_34_8714" cx="0" cy="0" r="1" gradientUnits="userSpaceOnUse" gradientTransform="translate(952.627 749.413) rotate(120.035) scale(234.947 226.254)">
<stop stop-color="#0EDAA9" stop-opacity="0.5"/>
<stop offset="1" stop-color="#1D183F" stop-opacity="0"/>
</radialGradient>
<radialGradient id="paint5_radial_34_8714" cx="0" cy="0" r="1" gradientUnits="userSpaceOnUse" gradientTransform="translate(43.9661 346.185) rotate(128.391) scale(460.093 497.714)">
<stop stop-color="#4D1BDC" stop-opacity="0.5"/>
<stop offset="1" stop-color="#1D183F" stop-opacity="0"/>
</radialGradient>
<radialGradient id="paint6_radial_34_8714" cx="0" cy="0" r="1" gradientUnits="userSpaceOnUse" gradientTransform="translate(-79.3221 515.36) rotate(117.604) scale(349.028 318.508)">
<stop stop-color="#0EDAA9" stop-opacity="0.3"/>
<stop offset="1" stop-color="#0EDAA9" stop-opacity="0"/>
</radialGradient>
<linearGradient id="paint7_linear_34_8714" x1="44.2856" y1="-103.463" x2="44.2856" y2="359.626" gradientUnits="userSpaceOnUse">
<stop stop-color="#4D1BDC"/>
<stop offset="1" stop-color="#5CF3EA"/>
</linearGradient>
<linearGradient id="paint8_linear_34_8714" x1="-197.836" y1="271.795" x2="182.398" y2="-84.9488" gradientUnits="userSpaceOnUse">
<stop stop-color="#4D1BDC"/>
<stop offset="1" stop-color="#5CF3EA"/>
</linearGradient>
<linearGradient id="paint9_linear_34_8714" x1="79.7991" y1="206.016" x2="79.7991" y2="307.345" gradientUnits="userSpaceOnUse">
<stop stop-color="#4D1BDC"/>
<stop offset="1" stop-color="#5CF3EA"/>
</linearGradient>
<linearGradient id="paint10_linear_34_8714" x1="79.7795" y1="-150.021" x2="79.7795" y2="248.997" gradientUnits="userSpaceOnUse">
<stop stop-color="#4D1BDC"/>
<stop offset="1" stop-color="#5CF3EA"/>
</linearGradient>
<linearGradient id="paint11_linear_34_8714" x1="54.9435" y1="236.375" x2="54.9435" y2="467.878" gradientUnits="userSpaceOnUse">
<stop stop-color="#4D1BDC"/>
<stop offset="1" stop-color="#5CF3EA"/>
</linearGradient>
<radialGradient id="paint12_radial_34_8714" cx="0" cy="0" r="1" gradientUnits="userSpaceOnUse" gradientTransform="translate(67.6271 309.413) rotate(120.035) scale(234.947 226.254)">
<stop stop-color="#0EDAA9" stop-opacity="0.5"/>
<stop offset="1" stop-color="#1D183F" stop-opacity="0"/>
</radialGradient>
<radialGradient id="paint13_radial_34_8714" cx="0" cy="0" r="1" gradientUnits="userSpaceOnUse" gradientTransform="translate(1061.32 57.3141) rotate(115.599) scale(298.992 258.918)">
<stop stop-color="#0EDAA9" stop-opacity="0.3"/>
<stop offset="1" stop-color="#0EDAA9" stop-opacity="0"/>
</radialGradient>
<clipPath id="clip0_34_8714">
<rect width="1100" height="800" fill="white"/>
</clipPath>
<clipPath id="clip1_34_8714">
<rect width="601.9" height="617.88" fill="white" transform="translate(639 290)"/>
</clipPath>
<clipPath id="clip2_34_8714">
<rect width="601.9" height="617.88" fill="white" transform="translate(-246 -150)"/>
</clipPath>
</defs>
</svg>
