<svg id="Gradient" enable-background="new 0 0 64 64" height="512" viewBox="0 0 64 64" width="512" xmlns="http://www.w3.org/2000/svg" xmlns:xlink="http://www.w3.org/1999/xlink"><linearGradient id="lg1"><stop offset="0" stop-color="#00a5e9"/><stop offset="1" stop-color="#15ffce"/></linearGradient><linearGradient id="SVGID_1_" gradientUnits="userSpaceOnUse" x1="31.45" x2="31.45" xlink:href="#lg1" y1="59" y2="5"/><linearGradient id="SVGID_2_" gradientUnits="userSpaceOnUse" x1="31.32" x2="31.32" xlink:href="#lg1" y1="59" y2="5"/><linearGradient id="SVGID_3_" gradientUnits="userSpaceOnUse" x1="31.995" x2="31.995" xlink:href="#lg1" y1="59" y2="5"/><path d="m25.02 27.454c1.067.286 2.164-.348 2.45-1.415.235-.88.9-2.419 2.702-2.831 1.725-.396 3.945.076 4.854 1.74.789 1.441.039 2.635-.478 3.218-.424.479-.922.938-1.448 1.424-1.552 1.433-3.484 3.216-3.761 6.125-.005.057-.008.115-.009.172l-.009 1c-.01 1.104.878 2.008 1.982 2.018h.018c1.096 0 1.99-.884 2-1.982l.008-.903c.152-1.279 1.049-2.165 2.484-3.49.576-.531 1.171-1.081 1.728-1.709 2.005-2.262 2.386-5.247.995-7.791-1.671-3.055-5.478-4.582-9.256-3.719-2.808.643-4.876 2.719-5.673 5.695-.288 1.065.346 2.161 1.413 2.448z" fill="url(#SVGID_1_)"/><path d="m29.91 41.49c-.38.37-.59.89-.59 1.41 0 .53.21 1.05.59 1.42.37.37.89.58 1.41.58.53 0 1.04-.21 1.42-.58.37-.38.58-.89.58-1.42 0-.52-.21-1.04-.59-1.41-.74-.74-2.08-.74-2.82 0z" fill="url(#SVGID_2_)"/><path d="m25.22 57.116c2.173.585 4.428.881 6.702.881h.001c5.802 0 11.489-1.937 16.012-5.452 6.296-4.894 10.055-12.572 10.055-20.538 0-9.763-5.645-18.895-14.382-23.266-3.537-1.77-7.534-2.705-11.56-2.705-5.814 0-11.498 1.93-16.003 5.433-7.795 6.059-11.525 16.219-9.504 25.884 1.983 9.487 9.315 17.244 18.679 19.763zm-6.72-42.489c3.808-2.96 8.619-4.591 13.548-4.591 3.407 0 6.786.79 9.77 2.282 7.394 3.699 12.171 11.427 12.171 19.688 0 6.741-3.181 13.238-8.51 17.38-3.824 2.973-8.639 4.61-13.557 4.61 0 0 0 0-.001 0-1.923 0-3.829-.25-5.663-.744-7.922-2.131-14.125-8.694-15.803-16.719-1.709-8.179 1.448-16.778 8.045-21.906z" fill="url(#SVGID_3_)"/></svg>