<svg id="Gradient" enable-background="new 0 0 64 64" height="512" viewBox="0 0 64 64" width="512" xmlns="http://www.w3.org/2000/svg" xmlns:xlink="http://www.w3.org/1999/xlink"><linearGradient id="lg1"><stop offset="0" stop-color="#00a5e9"/><stop offset="1" stop-color="#15ffce"/></linearGradient><linearGradient id="SVGID_1_" gradientUnits="userSpaceOnUse" x1="48.129" x2="48.129" xlink:href="#lg1" y1="59" y2="5"/><linearGradient id="SVGID_2_" gradientUnits="userSpaceOnUse" x1="36.811" x2="36.811" xlink:href="#lg1" y1="59" y2="5"/><linearGradient id="SVGID_3_" gradientUnits="userSpaceOnUse" x1="45.074" x2="45.074" xlink:href="#lg1" y1="59" y2="5"/><linearGradient id="SVGID_4_" gradientUnits="userSpaceOnUse" x1="12.26" x2="12.26" xlink:href="#lg1" y1="59" y2="5"/><linearGradient id="SVGID_5_" gradientUnits="userSpaceOnUse" x1="40.196" x2="40.196" xlink:href="#lg1" y1="59" y2="5"/><linearGradient id="SVGID_6_" gradientUnits="userSpaceOnUse" x1="32.245" x2="32.245" xlink:href="#lg1" y1="59" y2="5"/><linearGradient id="SVGID_7_" gradientUnits="userSpaceOnUse" x1="55.697" x2="55.697" xlink:href="#lg1" y1="59" y2="5"/><linearGradient id="SVGID_8_" gradientUnits="userSpaceOnUse" x1="45.082" x2="45.082" xlink:href="#lg1" y1="59" y2="5"/><linearGradient id="SVGID_9_" gradientUnits="userSpaceOnUse" x1="41.539" x2="41.539" xlink:href="#lg1" y1="59" y2="5"/><linearGradient id="SVGID_10_" gradientUnits="userSpaceOnUse" x1="20.953" x2="20.953" xlink:href="#lg1" y1="59" y2="5.008"/><linearGradient id="SVGID_11_" gradientUnits="userSpaceOnUse" x1="28.024" x2="28.024" xlink:href="#lg1" y1="59" y2="5.009"/><linearGradient id="SVGID_12_" gradientUnits="userSpaceOnUse" x1="44.553" x2="44.553" xlink:href="#lg1" y1="59" y2="5"/><linearGradient id="SVGID_13_" gradientUnits="userSpaceOnUse" x1="51.625" x2="51.625" xlink:href="#lg1" y1="59" y2="5"/><path d="m41.339 30.015c-1.077-.261-2.154.403-2.412 1.477-.259 1.074.402 2.154 1.477 2.412.907.218 1.81.321 2.702.321 6.5 0 12.357-5.464 14.194-11.494.322-1.057-.273-2.174-1.33-2.496-1.058-.32-2.174.274-2.496 1.33-1.527 5.011-6.887 9.711-12.135 8.45z" fill="url(#SVGID_1_)"/><path d="m32.037 25.126c.154 0 .312-.018.468-.056 1.074-.258 1.736-1.337 1.478-2.412-1.26-5.251 3.441-10.61 8.449-12.136 1.057-.322 1.652-1.439 1.33-2.496-.322-1.056-1.438-1.65-2.496-1.33-6.853 2.087-12.977 9.375-11.172 16.896.219.918 1.039 1.534 1.943 1.534z" fill="url(#SVGID_2_)"/><path d="m40.354 21.194c-.286 1.067.347 2.164 1.414 2.449l5.577 1.495c.173.047.347.069.519.069.883 0 1.691-.589 1.93-1.483.286-1.067-.347-2.164-1.414-2.449l-5.577-1.495c-1.063-.287-2.163.346-2.449 1.414z" fill="url(#SVGID_3_)"/><path d="m12.99 58.003c1.792 0 3.585-.683 4.95-2.047.781-.781.781-2.047 0-2.828-.78-.781-2.048-.781-2.828 0-1.15 1.149-3.093 1.149-4.243 0-1.149-1.15-1.149-3.092 0-4.242.781-.781.781-2.047 0-2.828-.78-.781-2.048-.781-2.828 0-2.729 2.729-2.729 7.169 0 9.898 1.364 1.365 3.157 2.047 4.949 2.047z" fill="url(#SVGID_4_)"/><path d="m38.936 33.459 1.35.413c.195.06.392.088.586.088.856 0 1.648-.554 1.912-1.415.323-1.056-.271-2.175-1.327-2.498l-1.35-.413c-1.059-.325-2.175.271-2.498 1.327s.271 2.175 1.327 2.498z" fill="url(#SVGID_5_)"/><path d="m30.538 25.06c.263.862 1.056 1.416 1.912 1.416.193 0 .391-.028.585-.088 1.056-.323 1.65-1.441 1.328-2.497l-.413-1.35c-.323-1.057-1.442-1.653-2.497-1.328-1.057.323-1.651 1.441-1.328 2.497z" fill="url(#SVGID_6_)"/><path d="m54.839 24.072c.183.052.367.077.548.077.871 0 1.672-.574 1.923-1.453.656-2.306 1.232-5.292-.151-7.94-.511-.979-1.72-1.357-2.699-.847-.979.511-1.358 1.72-.847 2.699.729 1.396.302 3.402-.151 4.994-.301 1.062.315 2.168 1.377 2.47z" fill="url(#SVGID_7_)"/><path d="m41.848 10.611c.181 0 .366-.025.548-.077 1.591-.454 3.597-.878 4.995-.15.98.512 2.187.13 2.698-.849s.13-2.188-.849-2.698c-2.65-1.38-5.634-.806-7.938-.15-1.063.303-1.679 1.409-1.376 2.471.249.879 1.051 1.453 1.922 1.453z" fill="url(#SVGID_8_)"/><path d="m40.354 22.229c.239.894 1.047 1.483 1.93 1.483.171 0 .346-.022.519-.069 1.067-.286 1.7-1.382 1.414-2.449l-1.495-5.577c-.286-1.067-1.384-1.703-2.449-1.414-1.067.286-1.7 1.382-1.414 2.449z" fill="url(#SVGID_9_)"/><path d="m9.455 49.472c.512 0 1.024-.195 1.414-.586l22.996-22.996c.781-.781.781-2.047 0-2.828-.78-.781-2.048-.781-2.828 0l-22.996 22.996c-.781.781-.781 2.047 0 2.828.39.39.902.586 1.414.586z" fill="url(#SVGID_10_)"/><path d="m15.112 55.956c.39.391.902.586 1.414.586s1.024-.195 1.414-.586l22.996-22.996c.781-.781.781-2.047 0-2.828-.78-.781-2.048-.781-2.828 0l-22.996 22.996c-.781.781-.781 2.047 0 2.828z" fill="url(#SVGID_11_)"/><path d="m40.791 18.135c.512 0 1.024-.195 1.414-.586l7.524-7.524c.781-.781.781-2.047 0-2.828-.78-.781-2.048-.781-2.828 0l-7.524 7.524c-.781.781-.781 2.047 0 2.828.39.39.902.586 1.414.586z" fill="url(#SVGID_12_)"/><path d="m46.448 24.62c.39.391.902.586 1.414.586s1.024-.195 1.414-.586l7.524-7.524c.781-.781.781-2.047 0-2.828-.78-.781-2.048-.781-2.828 0l-7.524 7.524c-.781.781-.781 2.047 0 2.828z" fill="url(#SVGID_13_)"/></svg>